<svg width="25" height="25" viewBox="0 0 25 25" fill="none" xmlns="http://www.w3.org/2000/svg">
<path d="M24.985 18.885C24.7621 20.5788 23.9303 22.1335 22.6449 23.2588C21.3595 24.3841 19.7084 25.0031 18 25C8.07501 25 1.13108e-05 16.925 1.13108e-05 6.99999C-0.00305116 5.2916 0.61587 3.64052 1.74118 2.35511C2.86649 1.0697 4.42122 0.237875 6.11501 0.0149912C6.54333 -0.0373077 6.97707 0.0503188 7.35149 0.264789C7.72592 0.47926 8.02094 0.809072 8.19251 1.20499L10.8325 7.09874C10.832 7.10373 10.832 7.10875 10.8325 7.11374C10.9639 7.41681 11.0181 7.74769 10.9904 8.07684C10.9627 8.40598 10.8539 8.72314 10.6738 8.99999C10.6513 9.03374 10.6275 9.06499 10.6025 9.09624L8.00001 12.1812C8.93626 14.0837 10.9263 16.0562 12.8538 16.995L15.8963 14.4062C15.9261 14.3811 15.9574 14.3578 15.99 14.3362C16.2668 14.1515 16.5852 14.0388 16.9166 14.0082C17.2479 13.9777 17.5816 14.0303 17.8875 14.1612L17.9025 14.1687L23.79 16.8075C24.1869 16.9783 24.5177 17.2729 24.7332 17.6474C24.9486 18.0219 25.0369 18.4561 24.985 18.885ZM15 4.99999H23C23.2652 4.99999 23.5196 4.89463 23.7071 4.7071C23.8947 4.51956 24 4.26521 24 3.99999C24 3.73477 23.8947 3.48042 23.7071 3.29288C23.5196 3.10535 23.2652 2.99999 23 2.99999H15C14.7348 2.99999 14.4804 3.10535 14.2929 3.29288C14.1054 3.48042 14 3.73477 14 3.99999C14 4.26521 14.1054 4.51956 14.2929 4.7071C14.4804 4.89463 14.7348 4.99999 15 4.99999ZM15 9.99999H23C23.2652 9.99999 23.5196 9.89463 23.7071 9.7071C23.8947 9.51956 24 9.26521 24 8.99999C24 8.73477 23.8947 8.48042 23.7071 8.29288C23.5196 8.10535 23.2652 7.99999 23 7.99999H15C14.7348 7.99999 14.4804 8.10535 14.2929 8.29288C14.1054 8.48042 14 8.73477 14 8.99999C14 9.26521 14.1054 9.51956 14.2929 9.7071C14.4804 9.89463 14.7348 9.99999 15 9.99999Z" fill="#030712"/>
</svg>
